<?xml version="1.0" encoding="UTF-8"?>
<svg id="Layer_1" data-name="Layer 1" xmlns="http://www.w3.org/2000/svg" viewBox="0 0 119.36 183.06">
  <defs>
    <style>
      .cls-1 {
        fill: #010101;
      }
    </style>
  </defs>
  <path class="cls-1" d="M7.1,85.75c-33.73,57.39,65.67,118.85,28,66-18.8-23.6-24.06-32.46-21.5-44,1.4-6.33,8.1-14.8,6.5-4-2,13.5,20,22,28,31.5,8,9.5,15-11,34-16.5,19-5.5-19,21.5-19,50s49,14,50-39.5c1-53.5,10.5-50,4-77.5-6.5-27.5-39,64-66.5,69s4-26,12.5-94.5c8.5-68.5-32,13.5-56,59.5Z"/>
</svg>